<?xml version="1.0" encoding="UTF-8" standalone="no"?>
<?xml-stylesheet type="text/css" href="../style/style.css"?><!--외부 스타일시트-->
<!DOCTYPE svg PUBLIC "-//W3C//DTD SVG 1.1//EN" "http://www.w3.org/Graphics/SVG/1.1/DTD/svg11.dtd">
<!-- <svg width="100%" height="100%" viewBox="0 0 2134 1600" version="1.1" xmlns="http://www.w3.org/2000/svg" xmlns:xlink="http://www.w3.org/1999/xlink" xml:space="preserve" xmlns:serif="http://www.serif.com/" style="fill-rule:evenodd;clip-rule:evenodd;stroke-linecap:round;stroke-linejoin:round;stroke-miterlimit:1.5;"> -->
<svg width="100%" height="100%" viewBox="0 0 2134 1600" version="1.1" xmlns="http://www.w3.org/2000/svg" xmlns:xlink="http://www.w3.org/1999/xlink" xml:space="preserve" xmlns:serif="http://www.serif.com/" >

<!-- x,y 축 -->
<path d="M181.333,130.667l0,1333.33l1813.33,0" style="fill:none;stroke:#000;stroke-width:5.33px;"/>
<!-- 눈금선 -->
<path d="M1994.67,1437.33l-0,53.334" style="fill:none;stroke:#000;stroke-width:5.33px;"/>
<path d="M1768,1490.67l-0,-53.334" style="fill:none;stroke:#000;stroke-width:5.33px;"/>
<path d="M1541.33,1490.67l0,-53.334" style="fill:none;stroke:#000;stroke-width:5.33px;"/>
<path d="M1088,1490.67l-0,-53.334" style="fill:none;stroke:#000;stroke-width:5.33px;"/>
<path d="M1314.67,1490.67l-0,-53.334" style="fill:none;stroke:#000;stroke-width:5.33px;"/>
<path d="M861.333,1490.67l0,-53.334" style="fill:none;stroke:#000;stroke-width:5.33px;"/>
<path d="M634.667,1490.67l-0,-53.334" style="fill:none;stroke:#000;stroke-width:5.33px;"/>
<path d="M408,1490.67l-0,-53.334" style="fill:none;stroke:#000;stroke-width:5.33px;"/>
<path d="M181.333,130.667l-53.333,-0" style="fill:none;stroke:#000;stroke-width:5.33px;"/>
<path d="M181.333,1464l-53.333,0l53.333,0Z" style="fill:none;stroke:#000;stroke-width:5.33px;"/>
<path d="M128,1130.67l53.333,-0" style="fill:none;stroke:#000;stroke-width:5.33px;"/>
<path d="M128,797.333l53.333,0" style="fill:none;stroke:#000;stroke-width:5.33px;"/>
<path d="M128,464l53.333,0" style="fill:none;stroke:#000;stroke-width:5.33px;"/>

<!-- 숫자 -->
<path d="M53.92,148.987l3.893,-0l0,-8.374l5.974,0l-0,-3.466l-5.974,-0l0,-25.28l-3.306,-0l-17.494,25.546l0,3.2l16.907,0l-0,8.374Zm-12.373,-11.84l12.373,-18.56l-0,18.56l-12.373,-0Z" style="fill-rule:nonzero;"/>
<rect x="67.307" y="144.72" width="4.64" height="4.747" style="fill-rule:nonzero;"/>
<path d="M88.747,148.773c7.893,0 12.586,-5.386 12.586,-11.786c0,-7.52 -4.426,-10.934 -11.626,-10.934c-1.494,0 -3.68,0.374 -5.12,0.747l0.746,-10.88l14.72,0l0,-3.627l-18.133,0l-1.28,18.774c1.653,-0.747 5.013,-1.76 7.467,-1.76c5.6,-0 8.8,2.186 8.8,7.626c-0,5.067 -3.307,8.267 -8.96,8.267c-2.934,-0 -6.454,-1.227 -8.427,-2.56l-0.8,3.413c2.133,1.547 5.867,2.72 10.027,2.72Z" style="fill-rule:nonzero;"/>
<path d="M47.893,1148.67c7.947,-0 13.014,-4.374 13.014,-10.614c-0,-5.546 -3.52,-8.16 -8.16,-9.066c4.053,-1.334 6.826,-3.947 6.826,-8.374c0,-5.6 -4.373,-8.853 -10.773,-8.853c-3.093,0 -7.307,1.333 -9.44,2.773l0.64,3.414c2.24,-1.28 5.013,-2.56 7.947,-2.56c4.373,-0 7.2,1.546 7.2,5.92c-0,4 -3.147,6.346 -7.787,6.346l-3.2,0l-0,3.627l3.467,0c5.44,0 8.96,2.187 8.96,6.773c-0,4.427 -3.307,7.04 -9.227,7.04c-2.667,0 -6.24,-1.013 -8.267,-2.346l-0.906,3.36c1.973,1.386 5.546,2.56 9.706,2.56Z" style="fill-rule:nonzero;"/>
<rect x="66.293" y="1144.72" width="4.64" height="4.747" style="fill-rule:nonzero;"/>
<path d="M92.96,1148.77c7.253,0 12.8,-4.96 12.8,-17.066l-0,-3.254c-0,-12.426 -5.76,-16.693 -12.747,-16.693c-7.04,0 -13.173,4.267 -13.173,16.907l-0,2.986c-0,12.107 5.76,17.12 13.12,17.12Zm-0,-3.52c-5.6,0 -8.587,-4.266 -8.587,-13.173l0,-3.947c0,-8.96 3.04,-12.853 8.64,-12.853c5.494,0 8.427,4.107 8.427,13.12l-0,3.947c-0,9.173 -2.987,12.906 -8.48,12.906Z" style="fill-rule:nonzero;"/>
<path d="M47.893,815.333c7.947,0 13.014,-4.373 13.014,-10.613c-0,-5.547 -3.52,-8.16 -8.16,-9.067c4.053,-1.333 6.826,-3.946 6.826,-8.373c0,-5.6 -4.373,-8.853 -10.773,-8.853c-3.093,-0 -7.307,1.333 -9.44,2.773l0.64,3.413c2.24,-1.28 5.013,-2.56 7.947,-2.56c4.373,0 7.2,1.547 7.2,5.92c-0,4 -3.147,6.347 -7.787,6.347l-3.2,-0l-0,3.627l3.467,-0c5.44,-0 8.96,2.186 8.96,6.773c-0,4.427 -3.307,7.04 -9.227,7.04c-2.667,0 -6.24,-1.013 -8.267,-2.347l-0.906,3.36c1.973,1.387 5.546,2.56 9.706,2.56Z" style="fill-rule:nonzero;"/>
<rect x="66.293" y="811.387" width="4.64" height="4.747" style="fill-rule:nonzero;"/>
<path d="M87.733,815.44c7.894,-0 12.587,-5.387 12.587,-11.787c-0,-7.52 -4.427,-10.933 -11.627,-10.933c-1.493,-0 -3.68,0.373 -5.12,0.747l0.747,-10.88l14.72,-0l-0,-3.627l-18.133,-0l-1.28,18.773c1.653,-0.746 5.013,-1.76 7.466,-1.76c5.6,0 8.8,2.187 8.8,7.627c0,5.067 -3.306,8.267 -8.96,8.267c-2.933,-0 -6.453,-1.227 -8.426,-2.56l-0.8,3.413c2.133,1.547 5.866,2.72 10.026,2.72Z" style="fill-rule:nonzero;"/>
<path d="M53.92,482.32l3.893,-0l0,-8.373l5.974,-0l-0,-3.467l-5.974,-0l0,-25.28l-3.306,-0l-17.494,25.547l0,3.2l16.907,-0l-0,8.373Zm-12.373,-11.84l12.373,-18.56l-0,18.56l-12.373,-0Z" style="fill-rule:nonzero;"/>
<rect x="67.307" y="478.053" width="4.64" height="4.747" style="fill-rule:nonzero;"/>
<path d="M93.973,482.107c7.254,-0 12.8,-4.96 12.8,-17.067l0,-3.253c0,-12.427 -5.76,-16.694 -12.746,-16.694c-7.04,0 -13.174,4.267 -13.174,16.907l0,2.987c0,12.106 5.76,17.12 13.12,17.12Zm0,-3.52c-5.6,-0 -8.586,-4.267 -8.586,-13.174l-0,-3.946c-0,-8.96 3.04,-12.854 8.64,-12.854c5.493,0 8.426,4.107 8.426,13.12l0,3.947c0,9.173 -2.986,12.907 -8.48,12.907Z" style="fill-rule:nonzero;"/>
<path d="M41.2,1478.8l22.24,0l-0,-3.627l-16.32,0l5.6,-5.653c6.187,-6.293 9.92,-10.56 9.92,-16.747c-0,-6.4 -3.893,-10.4 -11.093,-10.4c-4.054,0 -7.68,1.814 -9.92,3.254l1.226,3.36c2.08,-1.44 4.96,-2.934 8,-2.934c5.067,0 7.36,2.347 7.36,7.094c0,5.12 -3.413,9.013 -8.48,14.293l-8.533,8.853l-0,2.507Z" style="fill-rule:nonzero;"/>
<rect x="68.56" y="1475.39" width="4.64" height="4.747" style="fill-rule:nonzero;"/>
<path d="M90,1479.44c7.893,0 12.587,-5.387 12.587,-11.787c-0,-7.52 -4.427,-10.933 -11.627,-10.933c-1.493,0 -3.68,0.373 -5.12,0.747l0.747,-10.88l14.72,-0l-0,-3.627l-18.134,0l-1.28,18.773c1.654,-0.746 5.014,-1.76 7.467,-1.76c5.6,0 8.8,2.187 8.8,7.627c-0,5.067 -3.307,8.267 -8.96,8.267c-2.933,-0 -6.453,-1.227 -8.427,-2.56l-0.8,3.413c2.134,1.547 5.867,2.72 10.027,2.72Z" style="fill-rule:nonzero;"/>


<!-- 선 -->
<path d="M408,463.947l226.667,333.386l226.666,120l226.667,-240l226.667,-93.333l226.666,-173.387l226.667,-280l226.667,0" style="fill:none;stroke:#000;stroke-width:5.33px;"/>

<!-- 점 -->
<ellipse value="1" class="clickable point" cx="408" cy="463.947" rx="20" ry="22.667" style="stroke:#000;stroke-width:5.33px;"/>
<ellipse value="2" class="clickable point" cx="1541.33" cy="410.613" rx="20" ry="22.667" style="stroke:#000;stroke-width:5.33px;"/>
<ellipse value="3" class="clickable point" cx="1768" cy="130.613" rx="20" ry="22.667" style="stroke:#000;stroke-width:5.33px;"/>
<ellipse value="4" class="clickable point" cx="1994.67" cy="130.613" rx="20" ry="22.667" style="stroke:#000;stroke-width:5.33px;"/>
<ellipse value="5" class="clickable point" cx="634.667" cy="797.333" rx="20" ry="22.667" style="stroke:#000;stroke-width:5.33px;"/>
<ellipse value="6" class="clickable point" cx="861.333" cy="917.333" rx="20" ry="22.667" style="stroke:#000;stroke-width:5.33px;"/>
<ellipse value="7" class="clickable point" cx="1314.67" cy="584" rx="20" ry="22.667" style="stroke:#000;stroke-width:5.33px;"/>
<ellipse value="8" class="clickable point" cx="1088" cy="677.333" rx="20" ry="22.667" style="stroke:#000;stroke-width:5.33px;"/>

</svg>